<svg xmlns="http://www.w3.org/2000/svg" xmlns:xlink="http://www.w3.org/1999/xlink" width="500" zoomAndPan="magnify" viewBox="0 0 375 374.999991" height="500" preserveAspectRatio="xMidYMid meet" version="1.2"><defs/><g id="cba362e874"><g style="fill:#d2af94;fill-opacity:1;"><g transform="translate(9.882267, 204.817458)"><path style="stroke:none" d="M 7.625 -43.5 L 7.625 -59.703125 L 22.640625 -59.703125 L 22.640625 -43.5 L 31.796875 -43.5 L 31.796875 -32.046875 L 22.640625 -32.046875 L 22.640625 -18.234375 C 22.640625 -14.210938 23.769531 -12.203125 26.03125 -12.203125 C 26.59375 -12.203125 27.1875 -12.316406 27.8125 -12.546875 C 28.4375 -12.773438 28.914062 -13.003906 29.25 -13.234375 L 29.765625 -13.5625 L 33.5 -1.4375 C 30.269531 0.363281 26.59375 1.265625 22.46875 1.265625 C 19.644531 1.265625 17.210938 0.769531 15.171875 -0.21875 C 13.140625 -1.207031 11.597656 -2.535156 10.546875 -4.203125 C 9.503906 -5.867188 8.753906 -7.617188 8.296875 -9.453125 C 7.847656 -11.285156 7.625 -13.25 7.625 -15.34375 L 7.625 -32.046875 L 1.359375 -32.046875 L 1.359375 -43.5 Z M 7.625 -43.5 "/></g></g><g style="fill:#d2af94;fill-opacity:1;"><g transform="translate(36.16432, 204.817458)"><path style="stroke:none" d="M 5.09375 0 L 5.09375 -43.5 L 20.09375 -43.5 L 20.09375 -37.21875 L 20.265625 -37.21875 C 20.378906 -37.445312 20.5625 -37.726562 20.8125 -38.0625 C 21.070312 -38.40625 21.625 -39 22.46875 -39.84375 C 23.320312 -40.695312 24.226562 -41.460938 25.1875 -42.140625 C 26.144531 -42.816406 27.382812 -43.421875 28.90625 -43.953125 C 30.4375 -44.492188 31.992188 -44.765625 33.578125 -44.765625 C 35.210938 -44.765625 36.820312 -44.539062 38.40625 -44.09375 C 39.988281 -43.644531 41.148438 -43.191406 41.890625 -42.734375 L 43.078125 -42.0625 L 36.796875 -29.34375 C 34.929688 -30.925781 32.332031 -31.71875 29 -31.71875 C 27.1875 -31.71875 25.628906 -31.320312 24.328125 -30.53125 C 23.035156 -29.738281 22.117188 -28.773438 21.578125 -27.640625 C 21.046875 -26.515625 20.664062 -25.554688 20.4375 -24.765625 C 20.207031 -23.972656 20.09375 -23.347656 20.09375 -22.890625 L 20.09375 0 Z M 5.09375 0 "/></g></g><g style="fill:#d2af94;fill-opacity:1;"><g transform="translate(71.179245, 204.817458)"><path style="stroke:none" d="M 8.046875 -5.390625 C 3.984375 -9.828125 1.953125 -15.265625 1.953125 -21.703125 C 1.953125 -28.148438 3.984375 -33.601562 8.046875 -38.0625 C 12.117188 -42.53125 17.296875 -44.765625 23.578125 -44.765625 C 29.335938 -44.765625 34.082031 -42.957031 37.8125 -39.34375 L 37.8125 -43.5 L 52.828125 -43.5 L 52.828125 0 L 37.984375 0 L 37.984375 -4.921875 L 37.8125 -4.921875 C 34.082031 -0.796875 29.335938 1.265625 23.578125 1.265625 C 17.296875 1.265625 12.117188 -0.953125 8.046875 -5.390625 Z M 20.8125 -29.078125 C 18.863281 -27.160156 17.890625 -24.703125 17.890625 -21.703125 C 17.890625 -18.710938 18.820312 -16.269531 20.6875 -14.375 C 22.550781 -12.476562 25.007812 -11.53125 28.0625 -11.53125 C 31.007812 -11.53125 33.425781 -12.488281 35.3125 -14.40625 C 37.207031 -16.332031 38.15625 -18.765625 38.15625 -21.703125 C 38.15625 -24.703125 37.179688 -27.160156 35.234375 -29.078125 C 33.285156 -31.003906 30.894531 -31.96875 28.0625 -31.96875 C 25.1875 -31.96875 22.769531 -31.003906 20.8125 -29.078125 Z M 20.8125 -29.078125 "/></g></g><g style="fill:#d2af94;fill-opacity:1;"><g transform="translate(121.879429, 204.817458)"><path style="stroke:none" d="M 16.109375 -43.5 L 26.71875 -19.84375 L 37.3125 -43.5 L 55.125 -43.5 L 31.796875 0 L 21.625 0 L -1.703125 -43.5 Z M 16.109375 -43.5 "/></g></g><g style="fill:#d2af94;fill-opacity:1;"><g transform="translate(168.086, 204.817458)"><path style="stroke:none" d="M 49.09375 -19.671875 L 17.546875 -19.671875 C 17.546875 -16.617188 18.535156 -14.359375 20.515625 -12.890625 C 22.492188 -11.421875 24.644531 -10.6875 26.96875 -10.6875 C 29.394531 -10.6875 31.3125 -11.007812 32.71875 -11.65625 C 34.132812 -12.3125 35.75 -13.597656 37.5625 -15.515625 L 48.421875 -10.09375 C 43.898438 -2.519531 36.378906 1.265625 25.859375 1.265625 C 19.304688 1.265625 13.679688 -0.976562 8.984375 -5.46875 C 4.296875 -9.957031 1.953125 -15.367188 1.953125 -21.703125 C 1.953125 -28.035156 4.296875 -33.460938 8.984375 -37.984375 C 13.679688 -42.503906 19.304688 -44.765625 25.859375 -44.765625 C 32.753906 -44.765625 38.363281 -42.769531 42.6875 -38.78125 C 47.019531 -34.800781 49.1875 -29.109375 49.1875 -21.703125 C 49.1875 -20.691406 49.15625 -20.015625 49.09375 -19.671875 Z M 17.984375 -27.984375 L 34.515625 -27.984375 C 34.171875 -30.242188 33.273438 -31.976562 31.828125 -33.1875 C 30.390625 -34.40625 28.539062 -35.015625 26.28125 -35.015625 C 23.800781 -35.015625 21.820312 -34.363281 20.34375 -33.0625 C 18.875 -31.769531 18.085938 -30.078125 17.984375 -27.984375 Z M 17.984375 -27.984375 "/></g></g><g style="fill:#d2af94;fill-opacity:1;"><g transform="translate(212.003363, 204.817458)"><path style="stroke:none" d="M 5.09375 0 L 5.09375 -72.921875 L 20.09375 -72.921875 L 20.09375 0 Z M 5.09375 0 "/></g></g><g style="fill:#d2af94;fill-opacity:1;"><g transform="translate(229.976468, 204.817458)"><path style="stroke:none" d="M 55.453125 0 L 37.3125 0 L 27.734375 -12.296875 L 18.140625 0 L 0 0 L 18.578125 -22.71875 L 2.625 -43.5 L 20.1875 -43.5 L 27.734375 -33.40625 L 35.28125 -43.5 L 52.828125 -43.5 L 36.890625 -22.71875 Z M 55.453125 0 "/></g></g><g style="fill:#d2af94;fill-opacity:1;"><g transform="translate(278.217867, 204.817458)"><path style="stroke:none" d="M 49.09375 -19.671875 L 17.546875 -19.671875 C 17.546875 -16.617188 18.535156 -14.359375 20.515625 -12.890625 C 22.492188 -11.421875 24.644531 -10.6875 26.96875 -10.6875 C 29.394531 -10.6875 31.3125 -11.007812 32.71875 -11.65625 C 34.132812 -12.3125 35.75 -13.597656 37.5625 -15.515625 L 48.421875 -10.09375 C 43.898438 -2.519531 36.378906 1.265625 25.859375 1.265625 C 19.304688 1.265625 13.679688 -0.976562 8.984375 -5.46875 C 4.296875 -9.957031 1.953125 -15.367188 1.953125 -21.703125 C 1.953125 -28.035156 4.296875 -33.460938 8.984375 -37.984375 C 13.679688 -42.503906 19.304688 -44.765625 25.859375 -44.765625 C 32.753906 -44.765625 38.363281 -42.769531 42.6875 -38.78125 C 47.019531 -34.800781 49.1875 -29.109375 49.1875 -21.703125 C 49.1875 -20.691406 49.15625 -20.015625 49.09375 -19.671875 Z M 17.984375 -27.984375 L 34.515625 -27.984375 C 34.171875 -30.242188 33.273438 -31.976562 31.828125 -33.1875 C 30.390625 -34.40625 28.539062 -35.015625 26.28125 -35.015625 C 23.800781 -35.015625 21.820312 -34.363281 20.34375 -33.0625 C 18.875 -31.769531 18.085938 -30.078125 17.984375 -27.984375 Z M 17.984375 -27.984375 "/></g></g><g style="fill:#d2af94;fill-opacity:1;"><g transform="translate(322.135253, 204.817458)"><path style="stroke:none" d="M 28.234375 -32.484375 C 25.410156 -32.484375 22.976562 -31.4375 20.9375 -29.34375 C 18.90625 -27.25 17.890625 -24.734375 17.890625 -21.796875 C 17.890625 -18.796875 18.90625 -16.25 20.9375 -14.15625 C 22.976562 -12.070312 25.410156 -11.03125 28.234375 -11.03125 C 29.585938 -11.03125 30.875 -11.195312 32.09375 -11.53125 C 33.3125 -11.875 34.203125 -12.210938 34.765625 -12.546875 L 35.53125 -13.0625 L 40.625 -2.625 C 40.226562 -2.34375 39.675781 -1.988281 38.96875 -1.5625 C 38.257812 -1.144531 36.644531 -0.570312 34.125 0.15625 C 31.613281 0.894531 28.914062 1.265625 26.03125 1.265625 C 19.644531 1.265625 14.035156 -0.976562 9.203125 -5.46875 C 4.367188 -9.957031 1.953125 -15.34375 1.953125 -21.625 C 1.953125 -27.957031 4.367188 -33.394531 9.203125 -37.9375 C 14.035156 -42.488281 19.644531 -44.765625 26.03125 -44.765625 C 28.914062 -44.765625 31.570312 -44.425781 34 -43.75 C 36.4375 -43.070312 38.160156 -42.394531 39.171875 -41.71875 L 40.625 -40.703125 L 35.53125 -30.4375 C 33.664062 -31.800781 31.234375 -32.484375 28.234375 -32.484375 Z M 28.234375 -32.484375 "/></g></g></g></svg>